<?xml version="1.0" encoding="utf-8"?>
<!-- Generator: Adobe Illustrator 22.1.0, SVG Export Plug-In . SVG Version: 6.00 Build 0)  -->
<svg version="1.1" id="Layer_1" xmlns="http://www.w3.org/2000/svg" xmlns:xlink="http://www.w3.org/1999/xlink" x="0px" y="0px"
	 viewBox="0 0 1350 1080" style="enable-background:new 0 0 1350 1080;" xml:space="preserve">
<style type="text/css">
	.st0{fill:#FCF351;}
	.st1{fill:#F98419;}
</style>
<g>
	<path class="st0" d="M162.1,598.3c2.3-5.5,6.7-7.7,10.3-10.6c31.6-26,63-52.1,95-77.5c8.3-6.6,9.3-11.1,2.3-19.6
		c-26.3-31.8-51.7-64.3-77.5-96.5c-9.6-12-9.6-12,4.8-15.9c40.6-11,81.1-22.2,121.7-32.8c8.3-2.2,10.6-4.9,8.2-13.6
		c-11.4-41.3-22.1-82.7-33-124.1c-3.3-12.6-2.9-12.9,9.8-10.9c41.9,6.6,83.8,13.1,125.7,19.8c8.2,1.3,11.8-0.6,13.2-9.7
		c6.5-43.1,14-86,20.5-129.1c1.4-8.9,3.7-9.5,10.8-4.9c36.2,23.7,72.7,46.9,108.7,70.8c7.8,5.2,11.6,4.3,16.5-3.5
		c23-36.2,46.7-71.9,69.6-108c5.4-8.5,8.3-9.1,13.9-0.2c22.5,35.5,46,70.4,68.1,106.2c6.5,10.5,11.3,10.5,20.9,4
		c34.6-23.3,69.8-45.5,104.6-68.3c7.3-4.8,10.5-6.3,12.2,4.9c6.3,42.7,14,85.2,20.3,128c1.5,10.2,6,11.1,14.2,9.8
		c41.9-6.6,83.9-12.7,125.7-19.9c11.5-2,11.6,1.7,9.1,10.6c-10.8,39.8-21.3,79.7-31.7,119.6c-4.7,18.2-5.9,15,11.9,19.9
		c37.9,10.4,75.8,20.6,113.7,31c17.1,4.7,17.1,4.7,6.4,18.2c-25.3,31.6-50.4,63.4-76.1,94.7c-6.7,8.1-6.8,12.9,1.8,19.7
		c32.9,26.1,65.1,53.2,97.9,79.5c7.4,6,9,8.8-1,13.8c-37.9,19-75.3,39.1-113.3,58c-9.6,4.8-10,9-5.3,17.9
		c19.2,37,37.6,74.3,56.3,111.6c6.2,12.4,6.2,12.5-7.2,13.2c-41.6,2.3-83.2,5.1-124.8,6.6c-12.2,0.4-13.8,5.2-13.2,15.8
		c2.6,41.2,4.5,82.4,6.4,123.5c0.7,14.5,0.4,14.5-12.7,9.5c-38.2-14.7-76.5-29-114.4-44.2c-10.7-4.3-15.5-3.2-19.7,8.5
		c-14.2,39.1-29.7,77.8-44.8,116.7c-4.8,12.3-4.9,12.3-13.9,3.2c-30-30-60.2-59.9-89.9-90.2c-6.5-6.7-10.5-6.6-17,0
		c-29.7,30.3-59.9,60.2-89.9,90.2c-9.1,9-9.2,9-13.9-3.3c-15-38.8-30.5-77.5-44.8-116.7c-4.3-11.7-9.1-12.7-19.8-8.4
		c-38.7,15.5-77.7,30-116.5,45.2c-7.7,3-11.4,3.2-10.8-7c2.4-42,4.2-83.9,6.5-125.9c0.9-16,1.3-15.8-15.4-16.7
		c-41.2-2.2-82.4-4.9-123.6-6.7c-11.5-0.5-10.9-4-6.6-12.4c19.2-37.4,37.6-75.2,56.9-112.6c4.5-8.7,4.8-13.1-5.1-18
		c-36.6-18.1-72.7-37.3-109-56C170.9,603.3,166.5,600.7,162.1,598.3z M1070.1,540.7c0-219.4-175.7-396.8-393.6-397.4
		c-216.1-0.6-394.9,177.6-395,393.8C281.4,758.2,456.7,936.6,674,936.7C893.2,936.7,1070.1,759.9,1070.1,540.7z"/>
	<path class="st0" d="M1034.6,540.5c0,201.1-159.7,360.8-361,360.6c-199.5-0.2-361.5-167.2-356.9-369.8
		C321.1,339,479,177,680.4,178.6C875.4,180.1,1034.6,341.5,1034.6,540.5z"/>
</g>
<g>
	<path class="st1" d="M1991.1,570.9c2-4.6,5.7-6.5,8.7-9c26.6-21.9,53.2-43.9,80.2-65.4c7-5.6,7.9-9.4,1.9-16.6
		c-22.2-26.9-43.7-54.3-65.4-81.5c-8.1-10.1-8.1-10.1,4-13.4c34.2-9.3,68.4-18.7,102.7-27.7c7-1.8,8.9-4.1,6.9-11.5
		c-9.6-34.8-18.6-69.8-27.8-104.8c-2.8-10.7-2.4-10.9,8.3-9.2c35.4,5.6,70.7,11,106.1,16.8c6.9,1.1,10-0.5,11.1-8.1
		c5.5-36.4,11.8-72.6,17.3-109c1.1-7.5,3.1-8,9.1-4.1c30.5,20,61.3,39.6,91.7,59.7c6.6,4.4,9.8,3.6,14-2.9
		c19.4-30.5,39.4-60.6,58.8-91.2c4.6-7.2,7-7.7,11.8-0.1c19,30,38.8,59.4,57.5,89.6c5.5,8.9,9.5,8.9,17.7,3.4
		c29.2-19.6,58.9-38.4,88.3-57.7c6.1-4,8.9-5.3,10.3,4.2c5.3,36.1,11.8,72,17.1,108c1.3,8.6,5.1,9.3,12,8.2
		c35.4-5.6,70.8-10.7,106.1-16.8c9.7-1.7,9.8,1.4,7.7,9c-9.1,33.6-18,67.3-26.7,100.9c-4,15.4-4.9,12.6,10.1,16.8
		c32,8.8,64,17.4,96,26.1c14.4,3.9,14.4,4,5.4,15.3c-21.4,26.7-42.5,53.5-64.2,79.9c-5.6,6.9-5.8,10.8,1.6,16.7
		c27.8,22.1,55,44.9,82.6,67.1c6.3,5,7.6,7.4-0.9,11.6c-32,16-63.6,33-95.6,49c-8.1,4-8.4,7.6-4.5,15.1
		c16.2,31.2,31.8,62.7,47.5,94.2c5.3,10.5,5.2,10.5-6.1,11.1c-35.1,1.9-70.2,4.3-105.3,5.5c-10.3,0.4-11.7,4.4-11.1,13.3
		c2.2,34.7,3.8,69.5,5.4,104.3c0.6,12.2,0.3,12.3-10.7,8c-32.2-12.4-64.5-24.4-96.5-37.3c-9-3.6-13.1-2.7-16.7,7.2
		c-12,33-25.1,65.7-37.8,98.5c-4,10.4-4.1,10.4-11.8,2.7c-25.4-25.3-50.8-50.5-75.9-76.1c-5.5-5.6-8.8-5.6-14.3,0
		c-25.1,25.6-50.5,50.8-75.9,76.1c-7.6,7.6-7.7,7.6-11.8-2.8c-12.7-32.8-25.8-65.4-37.8-98.5c-3.6-9.9-7.7-10.7-16.7-7.1
		c-32.6,13.1-65.6,25.3-98.4,38.1c-6.5,2.5-9.6,2.7-9.1-5.9c2.1-35.4,3.5-70.9,5.5-106.3c0.8-13.5,1.1-13.3-13-14.1
		c-34.8-1.9-69.5-4.2-104.3-5.6c-9.7-0.4-9.2-3.4-5.6-10.4c16.2-31.6,31.8-63.5,48-95c3.8-7.3,4-11-4.3-15.2
		c-30.9-15.3-61.4-31.4-92-47.3C1998.5,575.1,1994.8,573,1991.1,570.9z M2757.5,522.3c0-185.2-148.3-334.9-332.2-335.4
		c-182.4-0.5-333.3,149.9-333.4,332.4c-0.1,186.6,147.8,337.2,331.2,337.2C2608.1,856.6,2757.4,707.3,2757.5,522.3z"/>
	<path class="st1" d="M2727.5,522.1c0,169.8-134.8,304.5-304.7,304.4c-168.4-0.1-305.1-141.1-301.2-312.1
		c3.7-162.3,136.9-299,306.9-297.7C2593.1,218,2727.5,354.2,2727.5,522.1z"/>
</g>
<g>
	<path class="st0" d="M-1506.8,570.9c2-4.6,5.7-6.5,8.7-9c26.6-21.9,53.2-43.9,80.2-65.4c7-5.6,7.9-9.4,1.9-16.6
		c-22.2-26.9-43.7-54.3-65.4-81.5c-8.1-10.1-8.1-10.1,4-13.4c34.2-9.3,68.4-18.7,102.7-27.7c7-1.8,9-4.1,6.9-11.5
		c-9.6-34.8-18.6-69.8-27.8-104.8c-2.8-10.7-2.4-10.9,8.3-9.2c35.4,5.6,70.7,11,106.1,16.8c6.9,1.1,10-0.5,11.1-8.1
		c5.5-36.4,11.8-72.6,17.3-109c1.1-7.5,3.1-8,9.1-4.1c30.5,20,61.3,39.6,91.7,59.7c6.6,4.4,9.8,3.6,14-2.9
		c19.4-30.5,39.4-60.6,58.8-91.2c4.6-7.2,7-7.7,11.8-0.1c19,30,38.8,59.4,57.5,89.6c5.5,8.9,9.5,8.9,17.7,3.4
		c29.2-19.6,58.9-38.4,88.3-57.7c6.1-4,8.9-5.3,10.3,4.2c5.3,36.1,11.8,72,17.1,108c1.3,8.6,5.1,9.3,12,8.2
		c35.4-5.6,70.8-10.7,106.1-16.8c9.7-1.7,9.8,1.4,7.7,9c-9.1,33.6-18,67.3-26.7,100.9c-4,15.4-4.9,12.6,10.1,16.8
		c32,8.8,64,17.4,96,26.1c14.4,3.9,14.4,4,5.4,15.3c-21.4,26.7-42.5,53.5-64.2,79.9c-5.6,6.9-5.8,10.8,1.6,16.7
		c27.8,22.1,55,44.9,82.6,67.1c6.3,5,7.6,7.4-0.9,11.6c-32,16-63.6,33-95.6,49c-8.1,4-8.4,7.6-4.5,15.1
		c16.2,31.2,31.8,62.7,47.5,94.2c5.3,10.5,5.2,10.5-6.1,11.1c-35.1,1.9-70.2,4.3-105.3,5.5c-10.3,0.4-11.7,4.4-11.1,13.3
		c2.2,34.7,3.8,69.5,5.4,104.3c0.6,12.2,0.3,12.3-10.7,8c-32.2-12.4-64.5-24.4-96.5-37.3c-9-3.6-13.1-2.7-16.7,7.2
		c-12,33-25.1,65.7-37.8,98.5c-4,10.4-4.1,10.4-11.8,2.7c-25.4-25.3-50.8-50.5-75.9-76.1c-5.5-5.6-8.8-5.6-14.3,0
		c-25.1,25.6-50.5,50.8-75.9,76.1c-7.6,7.6-7.7,7.6-11.8-2.8c-12.7-32.8-25.8-65.4-37.8-98.5c-3.6-9.9-7.7-10.7-16.7-7.1
		c-32.6,13.1-65.6,25.3-98.4,38.1c-6.5,2.5-9.6,2.7-9.1-5.9c2.1-35.4,3.5-70.9,5.5-106.3c0.8-13.5,1.1-13.3-13-14.1
		c-34.8-1.9-69.5-4.2-104.3-5.6c-9.7-0.4-9.2-3.4-5.6-10.4c16.2-31.6,31.8-63.5,48-95c3.8-7.3,4-11-4.3-15.2
		c-30.9-15.3-61.4-31.4-92-47.3C-1499.5,575.1-1503.1,573-1506.8,570.9z M-740.5,522.3c0-185.2-148.3-334.9-332.2-335.4
		c-182.4-0.5-333.3,149.9-333.4,332.4c-0.1,186.6,147.8,337.2,331.2,337.2C-889.8,856.6-740.5,707.3-740.5,522.3z"/>
	<path class="st0" d="M-770.5,522.1c0,169.8-134.8,304.5-304.7,304.4c-168.4-0.1-305.1-141.1-301.2-312.1
		c3.7-162.3,136.9-299,306.9-297.7C-904.8,218-770.5,354.2-770.5,522.1z"/>
</g>
</svg>
