<?xml version="1.0" encoding="utf-8"?>
<!-- Generator: Adobe Illustrator 22.1.0, SVG Export Plug-In . SVG Version: 6.00 Build 0)  -->
<svg version="1.1" id="Layer_1" xmlns="http://www.w3.org/2000/svg" xmlns:xlink="http://www.w3.org/1999/xlink" x="0px" y="0px"
	 viewBox="0 0 1200 200" style="enable-background:new 0 0 1200 200;" xml:space="preserve">
<style type="text/css">
	.st0{fill:#FAFAFA;}
	.st1{fill:none;}
	.st2{fill:#FDD835;}
	.st3{fill:#1E1E1E;}
	.st4{font-family:'Rajdhani-SemiBold';}
	.st5{font-size:101.8501px;}
	.st6{font-family:'Lobster1.4';}
	.st7{font-size:74.9783px;}
	.st8{font-family:'Lato-Light';}
	.st9{font-size:122.7765px;}
	.st10{font-family:'Lato-BoldItalic';}
	.st11{font-size:110.4989px;}
	.st12{font-size:99.8131px;}
</style>
<rect x="-25.2" y="-227.3" class="st0" width="1270" height="110"/>
<rect x="451.7" y="-12.3" class="st1" width="118.7" height="106"/>
<g>
	<path class="st2" d="M1069.7,105.9c0.2-0.6,0.7-0.8,1.1-1.1c3.2-2.7,6.5-5.3,9.8-8c0.9-0.7,1-1.1,0.2-2c-2.7-3.3-5.3-6.6-8-9.9
		c-1-1.2-1-1.2,0.5-1.6c4.2-1.1,8.3-2.3,12.5-3.4c0.9-0.2,1.1-0.5,0.8-1.4c-1.2-4.2-2.3-8.5-3.4-12.7c-0.3-1.3-0.3-1.3,1-1.1
		c4.3,0.7,8.6,1.3,12.9,2c0.8,0.1,1.2-0.1,1.4-1c0.7-4.4,1.4-8.8,2.1-13.3c0.1-0.9,0.4-1,1.1-0.5c3.7,2.4,7.5,4.8,11.2,7.3
		c0.8,0.5,1.2,0.4,1.7-0.4c2.4-3.7,4.8-7.4,7.1-11.1c0.6-0.9,0.9-0.9,1.4,0c2.3,3.6,4.7,7.2,7,10.9c0.7,1.1,1.2,1.1,2.1,0.4
		c3.6-2.4,7.2-4.7,10.7-7c0.7-0.5,1.1-0.6,1.3,0.5c0.6,4.4,1.4,8.7,2.1,13.1c0.2,1,0.6,1.1,1.5,1c4.3-0.7,8.6-1.3,12.9-2
		c1.2-0.2,1.2,0.2,0.9,1.1c-1.1,4.1-2.2,8.2-3.3,12.3c-0.5,1.9-0.6,1.5,1.2,2c3.9,1.1,7.8,2.1,11.7,3.2c1.8,0.5,1.8,0.5,0.7,1.9
		c-2.6,3.2-5.2,6.5-7.8,9.7c-0.7,0.8-0.7,1.3,0.2,2c3.4,2.7,6.7,5.5,10,8.2c0.8,0.6,0.9,0.9-0.1,1.4c-3.9,2-7.7,4-11.6,6
		c-1,0.5-1,0.9-0.5,1.8c2,3.8,3.9,7.6,5.8,11.5c0.6,1.3,0.6,1.3-0.7,1.4c-4.3,0.2-8.5,0.5-12.8,0.7c-1.3,0-1.4,0.5-1.4,1.6
		c0.3,4.2,0.5,8.5,0.7,12.7c0.1,1.5,0,1.5-1.3,1c-3.9-1.5-7.9-3-11.7-4.5c-1.1-0.4-1.6-0.3-2,0.9c-1.5,4-3,8-4.6,12
		c-0.5,1.3-0.5,1.3-1.4,0.3c-3.1-3.1-6.2-6.1-9.2-9.3c-0.7-0.7-1.1-0.7-1.7,0c-3,3.1-6.1,6.2-9.2,9.3c-0.9,0.9-0.9,0.9-1.4-0.3
		c-1.5-4-3.1-8-4.6-12c-0.4-1.2-0.9-1.3-2-0.9c-4,1.6-8,3.1-12,4.6c-0.8,0.3-1.2,0.3-1.1-0.7c0.2-4.3,0.4-8.6,0.7-12.9
		c0.1-1.6,0.1-1.6-1.6-1.7c-4.2-0.2-8.5-0.5-12.7-0.7c-1.2-0.1-1.1-0.4-0.7-1.3c2-3.8,3.9-7.7,5.8-11.6c0.5-0.9,0.5-1.3-0.5-1.8
		c-3.8-1.9-7.5-3.8-11.2-5.7C1070.6,106.4,1070.2,106.1,1069.7,105.9z M1162.9,100c0-22.5-18-40.7-40.4-40.8
		c-22.2-0.1-40.5,18.2-40.5,40.4c0,22.7,18,41,40.3,41C1144.8,140.6,1162.9,122.5,1162.9,100z"/>
	<path class="st2" d="M1159.3,100c0,20.6-16.4,37-37.1,37c-20.5,0-37.1-17.2-36.6-38c0.5-19.7,16.7-36.4,37.3-36.2
		C1142.9,63,1159.3,79.5,1159.3,100z"/>
</g>
<g>
	<g>
		<path class="st3" d="M22.7,105.9c0.2-0.6,0.7-0.8,1.1-1.1c3.2-2.7,6.5-5.3,9.8-8c0.9-0.7,1-1.1,0.2-2c-2.7-3.3-5.3-6.6-8-9.9
			c-1-1.2-1-1.2,0.5-1.6c4.2-1.1,8.3-2.3,12.5-3.4c0.9-0.2,1.1-0.5,0.8-1.4c-1.2-4.2-2.3-8.5-3.4-12.7c-0.3-1.3-0.3-1.3,1-1.1
			c4.3,0.7,8.6,1.3,12.9,2c0.8,0.1,1.2-0.1,1.4-1c0.7-4.4,1.4-8.8,2.1-13.3c0.1-0.9,0.4-1,1.1-0.5c3.7,2.4,7.5,4.8,11.2,7.3
			c0.8,0.5,1.2,0.4,1.7-0.4c2.4-3.7,4.8-7.4,7.1-11.1c0.6-0.9,0.9-0.9,1.4,0c2.3,3.6,4.7,7.2,7,10.9c0.7,1.1,1.2,1.1,2.1,0.4
			c3.6-2.4,7.2-4.7,10.7-7c0.7-0.5,1.1-0.6,1.3,0.5c0.6,4.4,1.4,8.7,2.1,13.1c0.2,1,0.6,1.1,1.5,1c4.3-0.7,8.6-1.3,12.9-2
			c1.2-0.2,1.2,0.2,0.9,1.1c-1.1,4.1-2.2,8.2-3.3,12.3c-0.5,1.9-0.6,1.5,1.2,2c3.9,1.1,7.8,2.1,11.7,3.2c1.8,0.5,1.8,0.5,0.7,1.9
			c-2.6,3.2-5.2,6.5-7.8,9.7c-0.7,0.8-0.7,1.3,0.2,2c3.4,2.7,6.7,5.5,10,8.2c0.8,0.6,0.9,0.9-0.1,1.4c-3.9,2-7.7,4-11.6,6
			c-1,0.5-1,0.9-0.5,1.8c2,3.8,3.9,7.6,5.8,11.5c0.6,1.3,0.6,1.3-0.7,1.4c-4.3,0.2-8.5,0.5-12.8,0.7c-1.3,0-1.4,0.5-1.4,1.6
			c0.3,4.2,0.5,8.5,0.7,12.7c0.1,1.5,0,1.5-1.3,1c-3.9-1.5-7.9-3-11.7-4.5c-1.1-0.4-1.6-0.3-2,0.9c-1.5,4-3,8-4.6,12
			c-0.5,1.3-0.5,1.3-1.4,0.3c-3.1-3.1-6.2-6.1-9.2-9.3c-0.7-0.7-1.1-0.7-1.7,0c-3,3.1-6.1,6.2-9.2,9.3c-0.9,0.9-0.9,0.9-1.4-0.3
			c-1.5-4-3.1-8-4.6-12c-0.4-1.2-0.9-1.3-2-0.9c-4,1.6-8,3.1-12,4.6c-0.8,0.3-1.2,0.3-1.1-0.7c0.2-4.3,0.4-8.6,0.7-12.9
			c0.1-1.6,0.1-1.6-1.6-1.7c-4.2-0.2-8.5-0.5-12.7-0.7c-1.2-0.1-1.1-0.4-0.7-1.3c2-3.8,3.9-7.7,5.8-11.6c0.5-0.9,0.5-1.3-0.5-1.8
			c-3.8-1.9-7.5-3.8-11.2-5.7C23.6,106.4,23.2,106.1,22.7,105.9z M115.9,100c0-22.5-18-40.7-40.4-40.8C53.3,59.1,35,77.4,35,99.6
			c0,22.7,18,41,40.3,41C97.8,140.6,115.9,122.5,115.9,100z"/>
		<path class="st3" d="M112.3,100c0,20.6-16.4,37-37.1,37c-20.5,0-37.1-17.2-36.6-38C39,79.3,55.3,62.6,75.9,62.8
			C95.9,63,112.3,79.5,112.3,100z"/>
	</g>
</g>
<text transform="matrix(1 0 0 1 176.625 132.4131)"><tspan x="0" y="0" class="st3 st4 st5">avcvz</tspan><tspan x="228.7" y="0" class="st3 st6 st7">   </tspan><tspan x="277.5" y="0" class="st3 st8 st9">x</tspan><tspan x="334" y="0" class="st3 st10 st11">  </tspan><tspan x="376.7" y="0" class="st2 st6 st12">zazameimei</tspan></text>
</svg>
