<?xml version="1.0" encoding="utf-8"?>
<!-- Generator: Adobe Illustrator 22.1.0, SVG Export Plug-In . SVG Version: 6.00 Build 0)  -->
<svg version="1.1" id="Layer_1" xmlns="http://www.w3.org/2000/svg" xmlns:xlink="http://www.w3.org/1999/xlink" x="0px" y="0px"
	 viewBox="0 0 1200 110" style="enable-background:new 0 0 1200 110;" xml:space="preserve">
<style type="text/css">
	.st0{fill:#FAFAFA;}
	.st1{fill:none;}
	.st2{fill:#FDD835;}
	.st3{fill:#1E1E1E;}
	.st4{font-family:'Rajdhani-SemiBold';}
	.st5{font-size:100px;}
	.st6{font-family:'Lobster1.4';}
	.st7{font-size:73.6163px;}
	.st8{font-family:'Lato-Light';}
	.st9{font-size:120.5462px;}
	.st10{font-family:'Lato-BoldItalic';}
	.st11{font-size:108.4916px;}
	.st12{font-size:98px;}
</style>
<rect x="-25.2" y="-272.3" class="st0" width="1270" height="110"/>
<rect x="451.7" y="-57.3" class="st1" width="118.7" height="106"/>
<g>
	<path class="st2" d="M1095.4,59.4c0.2-0.4,0.5-0.6,0.8-0.8c2.5-2,4.9-4.1,7.4-6c0.6-0.5,0.7-0.9,0.2-1.5c-2-2.5-4-5-6-7.5
		c-0.7-0.9-0.7-0.9,0.4-1.2c3.2-0.9,6.3-1.7,9.5-2.6c0.6-0.2,0.8-0.4,0.6-1.1c-0.9-3.2-1.7-6.4-2.6-9.7c-0.3-1-0.2-1,0.8-0.8
		c3.3,0.5,6.5,1,9.8,1.5c0.6,0.1,0.9,0,1-0.8c0.5-3.4,1.1-6.7,1.6-10.1c0.1-0.7,0.3-0.7,0.8-0.4c2.8,1.8,5.7,3.7,8.5,5.5
		c0.6,0.4,0.9,0.3,1.3-0.3c1.8-2.8,3.6-5.6,5.4-8.4c0.4-0.7,0.6-0.7,1.1,0c1.8,2.8,3.6,5.5,5.3,8.3c0.5,0.8,0.9,0.8,1.6,0.3
		c2.7-1.8,5.4-3.5,8.1-5.3c0.6-0.4,0.8-0.5,1,0.4c0.5,3.3,1.1,6.6,1.6,10c0.1,0.8,0.5,0.9,1.1,0.8c3.3-0.5,6.5-1,9.8-1.6
		c0.9-0.2,0.9,0.1,0.7,0.8c-0.8,3.1-1.7,6.2-2.5,9.3c-0.4,1.4-0.5,1.2,0.9,1.6c3,0.8,5.9,1.6,8.9,2.4c1.3,0.4,1.3,0.4,0.5,1.4
		c-2,2.5-3.9,4.9-5.9,7.4c-0.5,0.6-0.5,1,0.1,1.5c2.6,2,5.1,4.1,7.6,6.2c0.6,0.5,0.7,0.7-0.1,1.1c-3,1.5-5.9,3-8.8,4.5
		c-0.7,0.4-0.8,0.7-0.4,1.4c1.5,2.9,2.9,5.8,4.4,8.7c0.5,1,0.5,1-0.6,1c-3.2,0.2-6.5,0.4-9.7,0.5c-1,0-1.1,0.4-1,1.2
		c0.2,3.2,0.4,6.4,0.5,9.6c0.1,1.1,0,1.1-1,0.7c-3-1.1-6-2.3-8.9-3.4c-0.8-0.3-1.2-0.2-1.5,0.7c-1.1,3-2.3,6.1-3.5,9.1
		c-0.4,1-0.4,1-1.1,0.2c-2.3-2.3-4.7-4.7-7-7c-0.5-0.5-0.8-0.5-1.3,0c-2.3,2.4-4.7,4.7-7,7c-0.7,0.7-0.7,0.7-1.1-0.3
		c-1.2-3-2.4-6-3.5-9.1c-0.3-0.9-0.7-1-1.5-0.7c-3,1.2-6.1,2.3-9.1,3.5c-0.6,0.2-0.9,0.2-0.8-0.5c0.2-3.3,0.3-6.5,0.5-9.8
		c0.1-1.2,0.1-1.2-1.2-1.3c-3.2-0.2-6.4-0.4-9.6-0.5c-0.9,0-0.8-0.3-0.5-1c1.5-2.9,2.9-5.9,4.4-8.8c0.4-0.7,0.4-1-0.4-1.4
		c-2.9-1.4-5.7-2.9-8.5-4.4C1096.1,59.8,1095.8,59.6,1095.4,59.4z M1166.2,54.9c0-17.1-13.7-30.9-30.7-31
		c-16.8,0-30.8,13.8-30.8,30.7c0,17.2,13.6,31.1,30.6,31.1C1152.4,85.8,1166.2,72,1166.2,54.9z"/>
	<path class="st2" d="M1163.4,54.9c0,15.7-12.4,28.1-28.1,28.1c-15.5,0-28.2-13-27.8-28.8c0.3-15,12.6-27.6,28.3-27.5
		C1151,26.8,1163.4,39.4,1163.4,54.9z"/>
</g>
<g>
	<g>
		<path class="st3" d="M30.3,59.4c0.2-0.4,0.5-0.6,0.8-0.8c2.5-2,4.9-4.1,7.4-6c0.6-0.5,0.7-0.9,0.2-1.5c-2-2.5-4-5-6-7.5
			c-0.7-0.9-0.7-0.9,0.4-1.2c3.2-0.9,6.3-1.7,9.5-2.6c0.6-0.2,0.8-0.4,0.6-1.1c-0.9-3.2-1.7-6.4-2.6-9.7c-0.3-1-0.2-1,0.8-0.8
			c3.3,0.5,6.5,1,9.8,1.5c0.6,0.1,0.9,0,1-0.8c0.5-3.4,1.1-6.7,1.6-10.1c0.1-0.7,0.3-0.7,0.8-0.4c2.8,1.8,5.7,3.7,8.5,5.5
			c0.6,0.4,0.9,0.3,1.3-0.3c1.8-2.8,3.6-5.6,5.4-8.4c0.4-0.7,0.6-0.7,1.1,0c1.8,2.8,3.6,5.5,5.3,8.3c0.5,0.8,0.9,0.8,1.6,0.3
			c2.7-1.8,5.4-3.5,8.1-5.3c0.6-0.4,0.8-0.5,1,0.4c0.5,3.3,1.1,6.6,1.6,10c0.1,0.8,0.5,0.9,1.1,0.8c3.3-0.5,6.5-1,9.8-1.6
			c0.9-0.2,0.9,0.1,0.7,0.8c-0.8,3.1-1.7,6.2-2.5,9.3c-0.4,1.4-0.5,1.2,0.9,1.6c3,0.8,5.9,1.6,8.9,2.4c1.3,0.4,1.3,0.4,0.5,1.4
			c-2,2.5-3.9,4.9-5.9,7.4c-0.5,0.6-0.5,1,0.1,1.5c2.6,2,5.1,4.1,7.6,6.2c0.6,0.5,0.7,0.7-0.1,1.1c-3,1.5-5.9,3-8.8,4.5
			c-0.7,0.4-0.8,0.7-0.4,1.4c1.5,2.9,2.9,5.8,4.4,8.7c0.5,1,0.5,1-0.6,1c-3.2,0.2-6.5,0.4-9.7,0.5c-1,0-1.1,0.4-1,1.2
			c0.2,3.2,0.4,6.4,0.5,9.6c0.1,1.1,0,1.1-1,0.7c-3-1.1-6-2.3-8.9-3.4c-0.8-0.3-1.2-0.2-1.5,0.7c-1.1,3-2.3,6.1-3.5,9.1
			c-0.4,1-0.4,1-1.1,0.2c-2.3-2.3-4.7-4.7-7-7c-0.5-0.5-0.8-0.5-1.3,0c-2.3,2.4-4.7,4.7-7,7c-0.7,0.7-0.7,0.7-1.1-0.3
			c-1.2-3-2.4-6-3.5-9.1c-0.3-0.9-0.7-1-1.5-0.7c-3,1.2-6.1,2.3-9.1,3.5c-0.6,0.2-0.9,0.2-0.8-0.5c0.2-3.3,0.3-6.5,0.5-9.8
			c0.1-1.2,0.1-1.2-1.2-1.3c-3.2-0.2-6.4-0.4-9.6-0.5c-0.9,0-0.8-0.3-0.5-1c1.5-2.9,2.9-5.9,4.4-8.8c0.4-0.7,0.4-1-0.4-1.4
			c-2.9-1.4-5.7-2.9-8.5-4.4C31,59.8,30.7,59.6,30.3,59.4z M101.1,54.9c0-17.1-13.7-30.9-30.7-31c-16.8,0-30.8,13.8-30.8,30.7
			c0,17.2,13.6,31.1,30.6,31.1C87.3,85.8,101.1,72,101.1,54.9z"/>
		<path class="st3" d="M98.3,54.9C98.3,70.6,85.9,83,70.2,83C54.6,83,42,70,42.4,54.2c0.3-15,12.6-27.6,28.3-27.5
			C85.9,26.8,98.3,39.4,98.3,54.9z"/>
	</g>
</g>
<text transform="matrix(1 0 0 1 205.257 86.77)"><tspan x="0" y="0" class="st3 st4 st5">avcvz</tspan><tspan x="224.5" y="0" class="st3 st6 st7">   </tspan><tspan x="272.4" y="0" class="st3 st8 st9">x</tspan><tspan x="327.9" y="0" class="st3 st10 st11">  </tspan><tspan x="369.8" y="0" class="st2 st6 st12">zazameimei</tspan></text>
</svg>
